<svg width="1386" height="1247" viewBox="0 0 1386 1247" fill="none" xmlns="http://www.w3.org/2000/svg">
<path d="M150.695 105V83.584H155.236V105H150.695ZM178.396 94.0869C178.396 97.6123 177.39 100.312 175.378 102.188C173.376 104.062 170.48 105 166.691 105H160.627V83.584H167.351C170.847 83.584 173.562 84.5068 175.495 86.3525C177.429 88.1982 178.396 90.7764 178.396 94.0869ZM173.679 94.2041C173.679 89.6045 171.647 87.3047 167.585 87.3047H165.168V101.25H167.116C171.491 101.25 173.679 98.9014 173.679 94.2041ZM195.168 105H182.834V83.584H195.168V87.3047H187.375V92.0068H194.626V95.7275H187.375V101.25H195.168V105ZM212.761 105L211.208 99.9023H203.4L201.848 105H196.955L204.514 83.4961H210.065L217.653 105H212.761ZM210.124 96.0938C208.688 91.4746 207.878 88.8623 207.692 88.2568C207.517 87.6514 207.39 87.1729 207.312 86.8213C206.989 88.0713 206.066 91.1621 204.543 96.0938H210.124ZM228.625 105H224.084V87.3633H218.269V83.584H234.44V87.3633H228.625V105ZM250.07 105H237.736V83.584H250.07V87.3047H242.277V92.0068H249.528V95.7275H242.277V101.25H250.07V105Z" fill="black"/>
<path d="M582.236 20.0908H583.701C585.137 20.0908 586.196 19.8516 586.88 19.373C587.563 18.8945 587.905 18.1426 587.905 17.1172C587.905 16.1016 587.554 15.3789 586.851 14.9492C586.157 14.5195 585.078 14.3047 583.613 14.3047H582.236V20.0908ZM582.236 23.7822V32H577.695V10.584H583.936C586.846 10.584 588.999 11.1162 590.396 12.1807C591.792 13.2354 592.49 14.8418 592.49 17C592.49 18.2598 592.144 19.3828 591.45 20.3691C590.757 21.3457 589.775 22.1123 588.506 22.6689C591.729 27.4834 593.828 30.5938 594.805 32H589.766L584.653 23.7822H582.236ZM609.834 32H597.5V10.584H609.834V14.3047H602.041V19.0068H609.292V22.7275H602.041V28.25H609.834V32ZM627.427 32L625.874 26.9023H618.066L616.514 32H611.621L619.18 10.4961H624.731L632.319 32H627.427ZM624.79 23.0938C623.354 18.4746 622.544 15.8623 622.358 15.2568C622.183 14.6514 622.056 14.1729 621.978 13.8213C621.655 15.0713 620.732 18.1621 619.209 23.0938H624.79ZM644.126 14.0557C642.417 14.0557 641.094 14.7002 640.156 15.9893C639.219 17.2686 638.75 19.0557 638.75 21.3506C638.75 26.126 640.542 28.5137 644.126 28.5137C645.63 28.5137 647.451 28.1377 649.59 27.3857V31.1943C647.832 31.9268 645.869 32.293 643.701 32.293C640.586 32.293 638.203 31.3506 636.553 29.4658C634.902 27.5713 634.077 24.8564 634.077 21.3213C634.077 19.0947 634.482 17.1465 635.293 15.4766C636.104 13.7969 637.266 12.5127 638.779 11.624C640.303 10.7256 642.085 10.2764 644.126 10.2764C646.206 10.2764 648.296 10.7793 650.396 11.7852L648.931 15.4766C648.13 15.0957 647.324 14.7637 646.514 14.4805C645.703 14.1973 644.907 14.0557 644.126 14.0557ZM671.709 32H667.183V22.7568H658.701V32H654.16V10.584H658.701V18.9775H667.183V10.584H671.709V32ZM704.36 21.2627C704.36 24.8076 703.481 27.5322 701.724 29.4365C699.966 31.3408 697.446 32.293 694.165 32.293C690.884 32.293 688.364 31.3408 686.606 29.4365C684.849 27.5322 683.97 24.7979 683.97 21.2334C683.97 17.6689 684.849 14.9492 686.606 13.0742C688.374 11.1895 690.903 10.2471 694.194 10.2471C697.485 10.2471 700 11.1943 701.738 13.0889C703.486 14.9834 704.36 17.708 704.36 21.2627ZM688.73 21.2627C688.73 23.6553 689.185 25.457 690.093 26.668C691.001 27.8789 692.358 28.4844 694.165 28.4844C697.788 28.4844 699.6 26.0771 699.6 21.2627C699.6 16.4385 697.798 14.0264 694.194 14.0264C692.388 14.0264 691.025 14.6367 690.107 15.8574C689.189 17.0684 688.73 18.8701 688.73 21.2627ZM726.23 10.584V24.4414C726.23 26.0234 725.874 27.4102 725.161 28.6016C724.458 29.793 723.438 30.7061 722.1 31.3408C720.762 31.9756 719.18 32.293 717.354 32.293C714.6 32.293 712.461 31.5898 710.938 30.1836C709.414 28.7676 708.652 26.834 708.652 24.3828V10.584H713.179V23.6943C713.179 25.3447 713.511 26.5557 714.175 27.3271C714.839 28.0986 715.938 28.4844 717.471 28.4844C718.955 28.4844 720.029 28.0986 720.693 27.3271C721.367 26.5459 721.704 25.3252 721.704 23.665V10.584H726.23ZM739.736 32H735.195V14.3633H729.38V10.584H745.552V14.3633H739.736V32ZM585.957 73H581.416V55.3633H575.601V51.584H591.772V55.3633H585.957V73ZM614.507 62.2627C614.507 65.8076 613.628 68.5322 611.87 70.4365C610.112 72.3408 607.593 73.293 604.312 73.293C601.03 73.293 598.511 72.3408 596.753 70.4365C594.995 68.5322 594.116 65.7979 594.116 62.2334C594.116 58.6689 594.995 55.9492 596.753 54.0742C598.521 52.1895 601.05 51.2471 604.341 51.2471C607.632 51.2471 610.146 52.1943 611.885 54.0889C613.633 55.9834 614.507 58.708 614.507 62.2627ZM598.877 62.2627C598.877 64.6553 599.331 66.457 600.239 67.668C601.147 68.8789 602.505 69.4844 604.312 69.4844C607.935 69.4844 609.746 67.0771 609.746 62.2627C609.746 57.4385 607.944 55.0264 604.341 55.0264C602.534 55.0264 601.172 55.6367 600.254 56.8574C599.336 58.0684 598.877 59.8701 598.877 62.2627ZM646.177 62.2627C646.177 65.8076 645.298 68.5322 643.54 70.4365C641.782 72.3408 639.263 73.293 635.981 73.293C632.7 73.293 630.181 72.3408 628.423 70.4365C626.665 68.5322 625.786 65.7979 625.786 62.2334C625.786 58.6689 626.665 55.9492 628.423 54.0742C630.19 52.1895 632.72 51.2471 636.011 51.2471C639.302 51.2471 641.816 52.1943 643.555 54.0889C645.303 55.9834 646.177 58.708 646.177 62.2627ZM630.547 62.2627C630.547 64.6553 631.001 66.457 631.909 67.668C632.817 68.8789 634.175 69.4844 635.981 69.4844C639.604 69.4844 641.416 67.0771 641.416 62.2627C641.416 57.4385 639.614 55.0264 636.011 55.0264C634.204 55.0264 632.842 55.6367 631.924 56.8574C631.006 58.0684 630.547 59.8701 630.547 62.2627ZM658.877 73H654.336V55.3633H648.521V51.584H664.692V55.3633H658.877V73ZM685.42 51.584V65.4414C685.42 67.0234 685.063 68.4102 684.351 69.6016C683.647 70.793 682.627 71.7061 681.289 72.3408C679.951 72.9756 678.369 73.293 676.543 73.293C673.789 73.293 671.65 72.5898 670.127 71.1836C668.604 69.7676 667.842 67.834 667.842 65.3828V51.584H672.368V64.6943C672.368 66.3447 672.7 67.5557 673.364 68.3271C674.028 69.0986 675.127 69.4844 676.66 69.4844C678.145 69.4844 679.219 69.0986 679.883 68.3271C680.557 67.5459 680.894 66.3252 680.894 64.665V51.584H685.42ZM703.306 67.0527C703.306 68.9863 702.607 70.5098 701.211 71.623C699.824 72.7363 697.891 73.293 695.41 73.293C693.125 73.293 691.104 72.8633 689.346 72.0039V67.7852C690.791 68.4297 692.012 68.8838 693.008 69.1475C694.014 69.4111 694.932 69.543 695.762 69.543C696.758 69.543 697.52 69.3525 698.047 68.9717C698.584 68.5908 698.853 68.0244 698.853 67.2725C698.853 66.8525 698.735 66.4814 698.501 66.1592C698.267 65.8271 697.92 65.5098 697.461 65.207C697.012 64.9043 696.089 64.4209 694.692 63.7568C693.384 63.1416 692.402 62.5508 691.748 61.9844C691.094 61.418 690.571 60.7588 690.181 60.0068C689.79 59.2549 689.595 58.376 689.595 57.3701C689.595 55.4756 690.234 53.9863 691.514 52.9023C692.803 51.8184 694.58 51.2764 696.846 51.2764C697.959 51.2764 699.019 51.4082 700.024 51.6719C701.04 51.9355 702.1 52.3066 703.203 52.7852L701.738 56.3154C700.596 55.8467 699.648 55.5195 698.896 55.334C698.154 55.1484 697.422 55.0557 696.699 55.0557C695.84 55.0557 695.181 55.2559 694.722 55.6562C694.263 56.0566 694.033 56.5791 694.033 57.2236C694.033 57.624 694.126 57.9756 694.312 58.2783C694.497 58.5713 694.79 58.8594 695.19 59.1426C695.601 59.416 696.562 59.9141 698.076 60.6367C700.078 61.5938 701.45 62.5557 702.192 63.5225C702.935 64.4795 703.306 65.6562 703.306 67.0527Z" fill="black"/>
<path d="M1040.81 167L1039.25 161.902H1031.45L1029.89 167H1025L1032.56 145.496H1038.11L1045.7 167H1040.81ZM1038.17 158.094C1036.73 153.475 1035.92 150.862 1035.74 150.257C1035.56 149.651 1035.43 149.173 1035.36 148.821C1035.03 150.071 1034.11 153.162 1032.59 158.094H1038.17ZM1048.41 167V145.584H1052.95V167H1048.41ZM1078.47 167H1066.13V145.584H1078.47V149.305H1070.67V154.007H1077.92V157.728H1070.67V163.25H1078.47V167ZM1101.95 167H1096.18L1086.86 150.799H1086.73C1086.91 153.66 1087.01 155.701 1087.01 156.922V167H1082.95V145.584H1088.68L1097.98 161.624H1098.08C1097.93 158.841 1097.86 156.873 1097.86 155.721V145.584H1101.95V167ZM1115.48 154.974H1123.98V166.077C1122.6 166.526 1121.3 166.839 1120.08 167.015C1118.87 167.2 1117.63 167.293 1116.36 167.293C1113.13 167.293 1110.66 166.346 1108.95 164.451C1107.25 162.547 1106.4 159.817 1106.4 156.263C1106.4 152.806 1107.39 150.11 1109.36 148.177C1111.34 146.243 1114.09 145.276 1117.59 145.276C1119.79 145.276 1121.91 145.716 1123.95 146.595L1122.44 150.228C1120.88 149.446 1119.25 149.056 1117.56 149.056C1115.6 149.056 1114.03 149.715 1112.85 151.033C1111.67 152.352 1111.07 154.124 1111.07 156.351C1111.07 158.675 1111.55 160.452 1112.5 161.683C1113.45 162.903 1114.84 163.514 1116.66 163.514C1117.6 163.514 1118.56 163.416 1119.54 163.221V158.753H1115.48V154.974ZM1129.09 167V145.584H1133.63V167H1129.09ZM1158.02 167H1152.25L1142.93 150.799H1142.8C1142.99 153.66 1143.08 155.701 1143.08 156.922V167H1139.02V145.584H1144.75L1154.05 161.624H1154.16C1154.01 158.841 1153.94 156.873 1153.94 155.721V145.584H1158.02V167ZM1175.76 167H1163.43V145.584H1175.76V149.305H1167.97V154.007H1175.22V157.728H1167.97V163.25H1175.76V167Z" fill="black"/>
<path d="M1192.91 612.584H1197.5L1190.22 634H1185.27L1178 612.584H1182.58L1186.61 625.328C1186.84 626.08 1187.07 626.959 1187.3 627.965C1187.55 628.961 1187.7 629.654 1187.76 630.045C1187.86 629.146 1188.23 627.574 1188.85 625.328L1192.91 612.584ZM1212.54 634H1200.21V612.584H1212.54V616.305H1204.75V621.007H1212V624.728H1204.75V630.25H1212.54V634ZM1221.56 622.091H1223.03C1224.46 622.091 1225.52 621.852 1226.21 621.373C1226.89 620.895 1227.23 620.143 1227.23 619.117C1227.23 618.102 1226.88 617.379 1226.18 616.949C1225.49 616.52 1224.41 616.305 1222.94 616.305H1221.56V622.091ZM1221.56 625.782V634H1217.02V612.584H1223.26C1226.17 612.584 1228.33 613.116 1229.72 614.181C1231.12 615.235 1231.82 616.842 1231.82 619C1231.82 620.26 1231.47 621.383 1230.78 622.369C1230.08 623.346 1229.1 624.112 1227.83 624.669C1231.06 629.483 1233.16 632.594 1234.13 634H1229.09L1223.98 625.782H1221.56ZM1236.83 634V612.584H1241.37V634H1236.83ZM1251.23 634H1246.76V612.584H1259.04V616.305H1251.23V621.827H1258.49V625.533H1251.23V634ZM1263.22 634V612.584H1267.77V634H1263.22ZM1282.25 616.056C1280.54 616.056 1279.22 616.7 1278.28 617.989C1277.35 619.269 1276.88 621.056 1276.88 623.351C1276.88 628.126 1278.67 630.514 1282.25 630.514C1283.76 630.514 1285.58 630.138 1287.72 629.386V633.194C1285.96 633.927 1284 634.293 1281.83 634.293C1278.71 634.293 1276.33 633.351 1274.68 631.466C1273.03 629.571 1272.2 626.856 1272.2 623.321C1272.2 621.095 1272.61 619.146 1273.42 617.477C1274.23 615.797 1275.39 614.513 1276.91 613.624C1278.43 612.726 1280.21 612.276 1282.25 612.276C1284.33 612.276 1286.42 612.779 1288.52 613.785L1287.06 617.477C1286.26 617.096 1285.45 616.764 1284.64 616.48C1283.83 616.197 1283.03 616.056 1282.25 616.056ZM1305.4 634L1303.84 628.902H1296.04L1294.48 634H1289.59L1297.15 612.496H1302.7L1310.29 634H1305.4ZM1302.76 625.094C1301.33 620.475 1300.51 617.862 1300.33 617.257C1300.15 616.651 1300.03 616.173 1299.95 615.821C1299.63 617.071 1298.7 620.162 1297.18 625.094H1302.76ZM1321.26 634H1316.72V616.363H1310.91V612.584H1327.08V616.363H1321.26V634ZM1330.37 634V612.584H1334.91V634H1330.37ZM1359.74 623.263C1359.74 626.808 1358.86 629.532 1357.11 631.437C1355.35 633.341 1352.83 634.293 1349.55 634.293C1346.27 634.293 1343.75 633.341 1341.99 631.437C1340.23 629.532 1339.35 626.798 1339.35 623.233C1339.35 619.669 1340.23 616.949 1341.99 615.074C1343.76 613.189 1346.29 612.247 1349.58 612.247C1352.87 612.247 1355.38 613.194 1357.12 615.089C1358.87 616.983 1359.74 619.708 1359.74 623.263ZM1344.11 623.263C1344.11 625.655 1344.57 627.457 1345.48 628.668C1346.38 629.879 1347.74 630.484 1349.55 630.484C1353.17 630.484 1354.98 628.077 1354.98 623.263C1354.98 618.438 1353.18 616.026 1349.58 616.026C1347.77 616.026 1346.41 616.637 1345.49 617.857C1344.57 619.068 1344.11 620.87 1344.11 623.263ZM1383.18 634H1377.41L1368.09 617.799H1367.96C1368.15 620.66 1368.24 622.701 1368.24 623.922V634H1364.18V612.584H1369.91L1379.21 628.624H1379.31C1379.17 625.841 1379.09 623.873 1379.09 622.721V612.584H1383.18V634Z" fill="black"/>
<path d="M1120.24 1027.66H1121.73C1123.13 1027.66 1124.17 1027.39 1124.87 1026.84C1125.56 1026.29 1125.91 1025.48 1125.91 1024.42C1125.91 1023.36 1125.61 1022.57 1125.03 1022.07C1124.45 1021.56 1123.54 1021.3 1122.3 1021.3H1120.24V1027.66ZM1130.49 1024.26C1130.49 1026.57 1129.77 1028.33 1128.32 1029.55C1126.89 1030.77 1124.84 1031.38 1122.18 1031.38H1120.24V1039H1115.7V1017.58H1122.54C1125.13 1017.58 1127.11 1018.15 1128.45 1019.27C1129.81 1020.38 1130.49 1022.05 1130.49 1024.26ZM1151.96 1017.58V1031.44C1151.96 1033.02 1151.61 1034.41 1150.9 1035.6C1150.19 1036.79 1149.17 1037.71 1147.83 1038.34C1146.5 1038.98 1144.91 1039.29 1143.09 1039.29C1140.33 1039.29 1138.2 1038.59 1136.67 1037.18C1135.15 1035.77 1134.39 1033.83 1134.39 1031.38V1017.58H1138.91V1030.69C1138.91 1032.34 1139.25 1033.56 1139.91 1034.33C1140.57 1035.1 1141.67 1035.48 1143.21 1035.48C1144.69 1035.48 1145.76 1035.1 1146.43 1034.33C1147.1 1033.55 1147.44 1032.33 1147.44 1030.67V1017.58H1151.96ZM1157.21 1017.58H1163.87C1166.91 1017.58 1169.11 1018.02 1170.48 1018.89C1171.86 1019.75 1172.55 1021.12 1172.55 1023C1172.55 1024.28 1172.24 1025.33 1171.64 1026.15C1171.04 1026.97 1170.25 1027.47 1169.25 1027.63V1027.78C1170.61 1028.08 1171.58 1028.65 1172.18 1029.48C1172.79 1030.31 1173.09 1031.41 1173.09 1032.79C1173.09 1034.74 1172.38 1036.27 1170.96 1037.36C1169.56 1038.45 1167.64 1039 1165.22 1039H1157.21V1017.58ZM1161.75 1026.07H1164.39C1165.62 1026.07 1166.51 1025.88 1167.05 1025.49C1167.61 1025.11 1167.89 1024.48 1167.89 1023.6C1167.89 1022.78 1167.58 1022.2 1166.98 1021.85C1166.38 1021.49 1165.44 1021.3 1164.14 1021.3H1161.75V1026.07ZM1161.75 1029.67V1035.25H1164.71C1165.96 1035.25 1166.88 1035.01 1167.48 1034.53C1168.07 1034.05 1168.37 1033.32 1168.37 1032.33C1168.37 1030.56 1167.1 1029.67 1164.56 1029.67H1161.75ZM1177.37 1039V1017.58H1181.91V1035.25H1190.59V1039H1177.37ZM1194.33 1039V1017.58H1198.87V1039H1194.33ZM1216.9 1033.05C1216.9 1034.99 1216.2 1036.51 1214.81 1037.62C1213.42 1038.74 1211.49 1039.29 1209.01 1039.29C1206.72 1039.29 1204.7 1038.86 1202.94 1038V1033.79C1204.39 1034.43 1205.61 1034.88 1206.6 1035.15C1207.61 1035.41 1208.53 1035.54 1209.36 1035.54C1210.35 1035.54 1211.12 1035.35 1211.64 1034.97C1212.18 1034.59 1212.45 1034.02 1212.45 1033.27C1212.45 1032.85 1212.33 1032.48 1212.1 1032.16C1211.86 1031.83 1211.52 1031.51 1211.06 1031.21C1210.61 1030.9 1209.68 1030.42 1208.29 1029.76C1206.98 1029.14 1206 1028.55 1205.34 1027.98C1204.69 1027.42 1204.17 1026.76 1203.78 1026.01C1203.39 1025.25 1203.19 1024.38 1203.19 1023.37C1203.19 1021.48 1203.83 1019.99 1205.11 1018.9C1206.4 1017.82 1208.18 1017.28 1210.44 1017.28C1211.55 1017.28 1212.61 1017.41 1213.62 1017.67C1214.64 1017.94 1215.7 1018.31 1216.8 1018.79L1215.33 1022.32C1214.19 1021.85 1213.24 1021.52 1212.49 1021.33C1211.75 1021.15 1211.02 1021.06 1210.29 1021.06C1209.44 1021.06 1208.78 1021.26 1208.32 1021.66C1207.86 1022.06 1207.63 1022.58 1207.63 1023.22C1207.63 1023.62 1207.72 1023.98 1207.91 1024.28C1208.09 1024.57 1208.39 1024.86 1208.79 1025.14C1209.2 1025.42 1210.16 1025.91 1211.67 1026.64C1213.67 1027.59 1215.05 1028.56 1215.79 1029.52C1216.53 1030.48 1216.9 1031.66 1216.9 1033.05ZM1238.33 1039H1233.81V1029.76H1225.32V1039H1220.78V1017.58H1225.32V1025.98H1233.81V1017.58H1238.33V1039Z" fill="black"/>
<path d="M376.867 482.461C400.091 453.715 428.749 429.825 461.205 412.155C493.661 394.484 529.28 383.379 566.028 379.474C602.776 375.569 639.933 378.941 675.378 389.396C710.823 399.851 743.862 417.185 772.608 440.409C801.354 463.632 825.244 492.29 842.915 524.747C860.585 557.203 871.69 592.822 875.595 629.57C879.5 666.318 876.129 703.475 865.673 738.92C855.218 774.365 837.884 807.404 814.661 836.15L595.764 659.305L376.867 482.461Z" fill="#407BFF"/>
<path d="M329.631 453.884C380.709 390.66 452.683 347.751 532.59 332.884" stroke="#39343E" stroke-width="5" stroke-linecap="round"/>
<path d="M558.942 329.038C640.783 320.342 723.01 341.526 790.461 388.686" stroke="#39343E" stroke-width="5" stroke-linecap="round"/>
<path d="M825.616 416.899C883.775 470.26 921.63 542.137 932.732 620.281" stroke="#39343E" stroke-width="5" stroke-linecap="round"/>
<path d="M935.772 652.793C938.818 719.888 921.99 786.389 887.398 843.96" stroke="#39343E" stroke-width="5" stroke-linecap="round"/>
<path d="M654.932 570.668C667.237 570.668 678.321 573.549 688.184 579.311C698.145 584.975 705.86 593.031 711.329 603.48C716.895 613.93 719.678 625.99 719.678 639.662C719.678 663.588 712.452 681.947 697.999 694.74C683.643 707.533 661.866 713.93 632.667 713.93C607.667 713.93 587.256 710.072 571.436 702.357V654.896C579.932 658.803 589.502 662.025 600.147 664.564C610.889 667.104 620.118 668.373 627.833 668.373C638.575 668.373 646.827 666.127 652.588 661.635C658.35 657.045 661.231 650.307 661.231 641.42C661.231 633.217 658.301 626.82 652.442 622.23C646.583 617.641 637.696 615.346 625.782 615.346C616.7 615.346 606.885 617.055 596.338 620.473L575.098 609.926L583.155 496.84H705.323V545.033H632.374L629.737 573.305C637.354 571.84 642.774 571.059 645.997 570.961C649.219 570.766 652.198 570.668 654.932 570.668Z" fill="white"/>
<g filter="url(#filter0_d)">
<rect x="680.985" y="1066.22" width="605.161" height="259.364" transform="rotate(-141.07 680.985 1066.22)" fill="#C4C4C4"/>
</g>
<rect x="870.313" y="1246.77" width="1118.07" height="287.202" rx="143.601" transform="rotate(-141.07 870.313 1246.77)" fill="white"/>
<circle cx="336.986" cy="444.506" r="10.5922" fill="#407BFF" stroke="#676767" stroke-width="5"/>
<circle cx="866.384" cy="874.871" r="10.5922" fill="#407BFF" stroke="#676767" stroke-width="5"/>
<circle cx="812.337" cy="407.243" r="10.5922" fill="#407BFF" stroke="#676767" stroke-width="5"/>
<circle cx="936.21" cy="655.324" r="10.5922" fill="#407BFF" stroke="#676767" stroke-width="5"/>
<circle cx="557.876" cy="330.368" r="10.5922" fill="#407BFF" stroke="#676767" stroke-width="5"/>
<line x1="519.771" y1="313.283" x2="539.447" y2="329.866" stroke="#39343E" stroke-width="5" stroke-linecap="round"/>
<line x1="540.029" y1="331.982" x2="530.283" y2="354.257" stroke="#39343E" stroke-width="5" stroke-linecap="round"/>
<line x1="801.188" y1="372.313" x2="796.22" y2="393.561" stroke="#39343E" stroke-width="5" stroke-linecap="round"/>
<line x1="794.124" y1="395.424" x2="773.576" y2="396.622" stroke="#39343E" stroke-width="5" stroke-linecap="round"/>
<line x1="955.949" y1="617.339" x2="935.978" y2="633.566" stroke="#39343E" stroke-width="5" stroke-linecap="round"/>
<line x1="933.79" y1="633.742" x2="913.731" y2="620.003" stroke="#39343E" stroke-width="5" stroke-linecap="round"/>
<line x1="907.789" y1="857.514" x2="882.088" y2="858.781" stroke="#39343E" stroke-width="5" stroke-linecap="round"/>
<line x1="880.219" y1="857.629" x2="872.175" y2="834.684" stroke="#39343E" stroke-width="5" stroke-linecap="round"/>
<line x1="318.009" y1="419.299" x2="217.449" y2="317.118" stroke="#39343E" stroke-width="5" stroke-linecap="round" stroke-dasharray="28 28"/>
<line x1="555.726" y1="305.1" x2="568.138" y2="162.274" stroke="#39343E" stroke-width="5" stroke-linecap="round" stroke-dasharray="28 28"/>
<line x1="831.619" y1="386.458" x2="916.794" y2="271.139" stroke="#39343E" stroke-width="5" stroke-linecap="round" stroke-dasharray="28 28"/>
<line x1="966.278" y1="655.549" x2="1109.62" y2="657.85" stroke="#39343E" stroke-width="5" stroke-linecap="round" stroke-dasharray="28 28"/>
<line x1="896.431" y1="901.795" x2="1005.14" y2="995.259" stroke="#39343E" stroke-width="5" stroke-linecap="round" stroke-dasharray="28 28"/>
<defs>
<filter id="filter0_d" x="150.222" y="344.194" width="753.74" height="722.028" filterUnits="userSpaceOnUse" color-interpolation-filters="sRGB">
<feFlood flood-opacity="0" result="BackgroundImageFix"/>
<feColorMatrix in="SourceAlpha" type="matrix" values="0 0 0 0 0 0 0 0 0 0 0 0 0 0 0 0 0 0 127 0" result="hardAlpha"/>
<feOffset dy="-80"/>
<feGaussianBlur stdDeviation="30"/>
<feComposite in2="hardAlpha" operator="out"/>
<feColorMatrix type="matrix" values="0 0 0 0 0 0 0 0 0 0 0 0 0 0 0 0 0 0 0.24 0"/>
<feBlend mode="normal" in2="BackgroundImageFix" result="effect1_dropShadow"/>
<feBlend mode="normal" in="SourceGraphic" in2="effect1_dropShadow" result="shape"/>
</filter>
</defs>
</svg>
