<svg width="503" height="344" viewBox="0 0 503 344" fill="none" xmlns="http://www.w3.org/2000/svg">
<rect x="1" y="1" width="501" height="342" rx="16" fill="white" stroke="black" stroke-width="2"/>
<path d="M1 17C1 8.16344 8.16344 1 17 1H486C494.837 1 502 8.16344 502 17V49H1V17Z" fill="#407BFF" stroke="black" stroke-width="2"/>
<path d="M18.6761 66.9119H21.8778V76H23.1108V66.9119H26.3125V65.8182H18.6761V66.9119ZM30.0511 76.1591C32.1193 76.1591 33.5114 74.5881 33.5114 72.2216C33.5114 69.8352 32.1193 68.2642 30.0511 68.2642C27.983 68.2642 26.5909 69.8352 26.5909 72.2216C26.5909 74.5881 27.983 76.1591 30.0511 76.1591ZM30.0511 75.1051C28.4801 75.1051 27.7642 73.7528 27.7642 72.2216C27.7642 70.6903 28.4801 69.3182 30.0511 69.3182C31.6222 69.3182 32.3381 70.6903 32.3381 72.2216C32.3381 73.7528 31.6222 75.1051 30.0511 75.1051Z" fill="#393939"/>
<path d="M23.8011 102.364H24.9943C24.9396 100.827 23.5227 99.679 21.554 99.679C19.6051 99.679 18.0739 100.812 18.0739 102.523C18.0739 103.895 19.0682 104.71 20.6591 105.168L21.9119 105.526C22.9858 105.824 23.9403 106.202 23.9403 107.216C23.9403 108.33 22.8665 109.065 21.4545 109.065C20.2415 109.065 19.1676 108.528 19.0682 107.375H17.7955C17.9148 109.045 19.267 110.179 21.4545 110.179C23.8011 110.179 25.1335 108.886 25.1335 107.236C25.1335 105.327 23.3239 104.71 22.2699 104.432L21.2358 104.153C20.4801 103.955 19.267 103.557 19.267 102.463C19.267 101.489 20.1619 100.773 21.5142 100.773C22.7472 100.773 23.6818 101.359 23.8011 102.364ZM31.8141 106.878C31.8141 108.31 30.7203 108.966 29.8453 108.966C28.8709 108.966 28.1749 108.25 28.1749 107.136V102.364H27.0016V107.216C27.0016 109.165 28.0357 110.099 29.4675 110.099C30.6209 110.099 31.3766 109.483 31.7346 108.707H31.8141V110H32.9874V102.364H31.8141V106.878ZM35.2955 110H36.429V108.827H36.5682C36.8267 109.244 37.3239 110.159 38.7955 110.159C40.7045 110.159 42.0369 108.628 42.0369 106.202C42.0369 103.795 40.7045 102.264 38.7756 102.264C37.2841 102.264 36.8267 103.179 36.5682 103.577H36.4688V99.8182H35.2955V110ZM36.4489 106.182C36.4489 104.472 37.2045 103.318 38.6364 103.318C40.1278 103.318 40.8636 104.571 40.8636 106.182C40.8636 107.812 40.108 109.105 38.6364 109.105C37.2244 109.105 36.4489 107.912 36.4489 106.182ZM43.8317 102.364V110.557C43.8317 111.332 43.5135 111.77 42.7976 111.77H42.5788V112.864H42.8175C44.2891 112.864 45.005 111.969 45.005 110.557V102.364H43.8317ZM44.4084 101.091C44.8658 101.091 45.2436 100.733 45.2436 100.295C45.2436 99.858 44.8658 99.5 44.4084 99.5C43.951 99.5 43.5732 99.858 43.5732 100.295C43.5732 100.733 43.951 101.091 44.4084 101.091ZM50.3556 110.159C51.9068 110.159 53.0403 109.384 53.3983 108.23L52.2647 107.912C51.9664 108.707 51.2754 109.105 50.3556 109.105C48.9785 109.105 48.0289 108.215 47.9743 106.58H53.5176V106.082C53.5176 103.239 51.8272 102.264 50.2363 102.264C48.1681 102.264 46.796 103.895 46.796 106.241C46.796 108.588 48.1483 110.159 50.3556 110.159ZM47.9743 105.565C48.0538 104.377 48.894 103.318 50.2363 103.318C51.5091 103.318 52.3244 104.273 52.3244 105.565H47.9743ZM58.4047 110.159C60.095 110.159 61.2086 109.125 61.4075 107.773H60.2342C60.0154 108.608 59.3194 109.105 58.4047 109.105C57.0126 109.105 56.1177 107.952 56.1177 106.182C56.1177 104.452 57.0325 103.318 58.4047 103.318C59.4387 103.318 60.0552 103.955 60.2342 104.651H61.4075C61.2086 103.219 59.9956 102.264 58.3848 102.264C56.3166 102.264 54.9444 103.895 54.9444 106.222C54.9444 108.509 56.2569 110.159 58.4047 110.159ZM66.4437 102.364H64.813V100.534H63.6397V102.364H62.4863V103.358H63.6397V108.131C63.6397 109.463 64.7136 110.099 65.7079 110.099C66.1454 110.099 66.4238 110.02 66.5829 109.96L66.3443 108.906C66.2449 108.926 66.0858 108.966 65.8272 108.966C65.3102 108.966 64.813 108.807 64.813 107.812V103.358H66.4437V102.364Z" fill="#393939"/>
<rect x="27" y="185.514" width="396.134" height="7.05981" rx="3.5299" fill="#407BFF" fill-opacity="0.19"/>
<rect x="29" y="238.514" width="396.134" height="7.05981" rx="3.5299" fill="#407BFF" fill-opacity="0.19"/>
<rect x="29" y="269" width="79" height="7" rx="3.5" fill="#407BFF" fill-opacity="0.19"/>
<rect x="29" y="282" width="65" height="7" rx="3.5" fill="#407BFF" fill-opacity="0.19"/>
<rect x="27" y="151" width="289.452" height="7.05981" rx="3.5299" fill="#407BFF" fill-opacity="0.19"/>
<rect x="29" y="204" width="289.452" height="7.05981" rx="3.5299" fill="#407BFF" fill-opacity="0.19"/>
<rect x="27" y="169.042" width="414.175" height="7.05981" rx="3.5299" fill="#407BFF" fill-opacity="0.19"/>
<rect x="29" y="222.042" width="414.175" height="7.05981" rx="3.5299" fill="#407BFF" fill-opacity="0.19"/>
<line x1="15.4951" y1="87.9902" x2="480.505" y2="87.9902" stroke="#393939" stroke-linecap="round"/>
<line x1="15.5" y1="121.5" x2="480.51" y2="121.5" stroke="#393939" stroke-linecap="round"/>
</svg>
