<svg width="310" height="49" viewBox="0 0 310 49" fill="none" xmlns="http://www.w3.org/2000/svg">
<path d="M24.5 0C10.9689 0 0 10.9689 0 24.5C0 38.0311 10.9689 49 24.5 49C38.0311 49 49 38.0311 49 24.5C49 10.9689 38.0311 0 24.5 0ZM18.5026 34.6547H13.5414V18.6889H18.5026V34.6547ZM15.9914 16.7289C14.4244 16.7289 13.4112 15.6187 13.4112 14.2457C13.4112 12.8446 14.455 11.7677 16.0552 11.7677C17.6553 11.7677 18.6353 12.8446 18.6659 14.2457C18.6659 15.6187 17.6553 16.7289 15.9914 16.7289ZM36.6224 34.6547H31.6611V25.8067C31.6611 23.7471 30.9415 22.3486 29.1473 22.3486C27.7769 22.3486 26.9628 23.2954 26.6029 24.2065C26.4702 24.5306 26.437 24.99 26.437 25.4468V34.6522H21.4732V23.7803C21.4732 21.7871 21.4094 20.1206 21.3431 18.6864H25.6535L25.8807 20.9041H25.9802C26.6335 19.8629 28.2337 18.3265 30.9108 18.3265C34.1749 18.3265 36.6224 20.5136 36.6224 25.2146V34.6547Z" fill="black"/>
<g clip-path="url(#clip0)">
<path d="M136.001 24.6507C136.001 11.0348 125.031 -0.00244141 111.501 -0.00244141C97.965 0.000621094 86.9951 11.0348 86.9951 24.6537C86.9951 36.9558 95.956 47.1539 107.667 49.0037V31.7771H101.45V24.6537H107.673V19.2178C107.673 13.0407 111.333 9.62912 116.928 9.62912C119.611 9.62912 122.413 10.1099 122.413 10.1099V16.1737H119.323C116.282 16.1737 115.332 18.0755 115.332 20.0263V24.6507H122.125L121.041 31.7741H115.329V49.0006C127.04 47.1509 136.001 36.9528 136.001 24.6507Z" fill="black"/>
</g>
<path d="M198.5 0C184.969 0 174 10.9689 174 24.5C174 38.0311 184.969 49 198.5 49C212.031 49 223 38.0311 223 24.5C223 10.9689 212.031 0 198.5 0ZM208.466 20.0696C208.476 20.2789 208.479 20.4881 208.479 20.6923C208.479 27.0725 203.627 34.4251 194.751 34.4251C192.128 34.4294 189.56 33.6761 187.355 32.2558C187.73 32.3017 188.116 32.3196 188.506 32.3196C190.767 32.3196 192.847 31.5514 194.498 30.2549C193.492 30.2352 192.517 29.902 191.709 29.3018C190.901 28.7016 190.301 27.8643 189.991 26.9066C190.714 27.044 191.458 27.0152 192.168 26.8224C191.076 26.6015 190.094 26.0098 189.388 25.1474C188.683 24.285 188.297 23.2051 188.297 22.0908V22.0321C188.948 22.392 189.693 22.6115 190.484 22.637C189.46 21.9554 188.735 20.9084 188.458 19.7101C188.18 18.5118 188.371 17.2527 188.991 16.1904C190.203 17.6808 191.715 18.9001 193.428 19.7692C195.141 20.6384 197.018 21.138 198.936 21.2359C198.692 20.2005 198.797 19.1136 199.235 18.144C199.673 17.1745 200.418 16.3767 201.356 15.8746C202.294 15.3726 203.371 15.1944 204.421 15.3678C205.47 15.5412 206.433 16.0565 207.159 16.8335C208.239 16.6199 209.275 16.2237 210.222 15.6621C209.862 16.7803 209.108 17.7298 208.101 18.3342C209.058 18.2189 209.992 17.9618 210.872 17.5711C210.226 18.5406 209.41 19.3867 208.466 20.0696Z" fill="black"/>
<path d="M293.156 24.5C293.156 26.5306 292.35 28.478 290.914 29.9138C289.478 31.3496 287.531 32.1562 285.5 32.1562C283.469 32.1562 281.522 31.3496 280.086 29.9138C278.65 28.478 277.844 26.5306 277.844 24.5C277.844 24.0636 277.89 23.6374 277.969 23.224H275.292V33.4246C275.292 34.1341 275.866 34.7083 276.575 34.7083H294.427C294.767 34.7077 295.093 34.5721 295.333 34.3314C295.573 34.0908 295.708 33.7647 295.708 33.4246V23.224H293.031C293.11 23.6374 293.156 24.0636 293.156 24.5ZM285.5 29.6042C286.17 29.604 286.834 29.4718 287.454 29.215C288.073 28.9583 288.636 28.5821 289.11 28.1079C289.584 27.6337 289.96 27.0708 290.216 26.4513C290.472 25.8318 290.604 25.1679 290.604 24.4974C290.604 23.827 290.472 23.1631 290.215 22.5438C289.958 21.9244 289.582 21.3617 289.108 20.8877C288.634 20.4138 288.071 20.0378 287.451 19.7814C286.832 19.525 286.168 19.3931 285.497 19.3933C284.143 19.3936 282.845 19.9318 281.888 20.8895C280.931 21.8472 280.393 23.146 280.393 24.5C280.394 25.854 280.932 27.1525 281.89 28.1097C282.847 29.0669 284.146 29.6045 285.5 29.6042ZM291.625 19.1406H294.685C294.888 19.1406 295.083 19.06 295.227 18.9165C295.371 18.773 295.452 18.5783 295.453 18.375V15.3151C295.453 15.1113 295.372 14.9159 295.228 14.7719C295.084 14.6278 294.889 14.5469 294.685 14.5469H291.625C291.421 14.5469 291.226 14.6278 291.082 14.7719C290.938 14.9159 290.857 15.1113 290.857 15.3151V18.375C290.859 18.7961 291.204 19.1406 291.625 19.1406ZM285.5 0C279.002 0 272.771 2.58124 268.176 7.17588C263.581 11.7705 261 18.0022 261 24.5C261 30.9978 263.581 37.2295 268.176 41.8241C272.771 46.4188 279.002 49 285.5 49C288.717 49 291.903 48.3663 294.876 47.135C297.848 45.9038 300.549 44.0992 302.824 41.8241C305.099 39.5491 306.904 36.8482 308.135 33.8757C309.366 30.9033 310 27.7174 310 24.5C310 21.2826 309.366 18.0967 308.135 15.1243C306.904 12.1518 305.099 9.45092 302.824 7.17588C300.549 4.90085 297.848 3.09619 294.876 1.86495C291.903 0.633711 288.717 0 285.5 0ZM298.26 34.4251C298.26 35.9844 296.984 37.2604 295.425 37.2604H275.575C274.016 37.2604 272.74 35.9844 272.74 34.4251V14.5749C272.74 13.0156 274.016 11.7396 275.575 11.7396H295.425C296.984 11.7396 298.26 13.0156 298.26 14.5749V34.4251Z" fill="black"/>
<defs>
<clipPath id="clip0">
<rect width="49" height="49" fill="white" transform="translate(87)"/>
</clipPath>
</defs>
</svg>
