<svg width="57" height="51" viewBox="0 0 57 51" fill="none" xmlns="http://www.w3.org/2000/svg">
<path d="M40.1424 31.7909C38.6848 36.6364 41.9151 47.4303 41.9151 47.4303C41.9151 47.4303 50.5818 40.2606 52.0788 35.4152C53.5758 30.5697 52.0788 25.803 48.7697 24.8182C45.4606 23.7939 41.6 26.9061 40.1424 31.7909Z" fill="#3FA594"/>
<path d="M3.58485 34.1152C0.551515 30.0182 0 18.7909 0 18.7909C0 18.7909 10.597 22.6121 13.5909 26.7091C16.6242 30.8061 16.8212 35.7697 14.0636 37.8182C11.3061 39.8667 6.61818 38.2121 3.58485 34.1152Z" fill="#3FA594"/>
<path d="M8.27279 14.3788C8.27279 14.2606 8.27279 14.1818 8.2334 14.0636H8.31219C9.17885 9.25757 18.1213 5.47575 28.9546 5.47575C39.8273 5.47575 48.7304 9.25757 49.597 14.0636H49.6758C49.6758 14.1818 49.6758 14.2606 49.6364 14.3788C49.6364 14.5364 49.6758 14.6939 49.6758 14.8515C49.6758 15.2061 49.6364 15.5606 49.5576 15.9151C49.2031 21.5879 49.0455 27.9697 46.3273 33.8788C39.9849 47.6273 31.0819 48.1788 28.9546 48.1C26.8273 48.1788 17.9243 47.6273 11.5819 33.8788C8.8637 27.9697 8.70613 21.5879 8.35158 15.9151C8.27279 15.5606 8.2334 15.2061 8.2334 14.8515C8.2334 14.6545 8.2334 14.5364 8.27279 14.3788Z" fill="#86E0CE"/>
<path d="M17.1756 8.70605C23.3998 8.70605 28.4817 13.3545 28.9544 19.2242C29.4271 13.3545 34.5089 8.70605 40.7332 8.70605C47.2726 8.70605 52.5514 13.7879 52.5514 20.0909C52.5514 26.3939 47.2726 31.4758 40.7332 31.4758C34.5089 31.4758 29.4271 26.8273 28.9544 20.9576C28.5605 26.0394 24.6998 30.2151 19.618 31.2394C18.8301 31.397 18.0029 31.4758 17.1756 31.4758C10.6362 31.4758 5.35742 26.3939 5.35742 20.0909C5.35742 13.7879 10.6756 8.70605 17.1756 8.70605Z" fill="#66C4B6"/>
<path d="M23.1638 37.4636C23.8729 37.4636 24.5426 37.1485 25.0547 36.6758C25.2123 36.5182 25.4093 36.7939 25.2911 36.9909C24.779 37.7394 24.0305 38.2515 23.1638 38.2515C22.2971 38.2515 21.5487 37.7788 21.0365 36.9909C20.9184 36.7939 21.1153 36.5182 21.2729 36.6758C21.8244 37.1879 22.4547 37.4636 23.1638 37.4636Z" fill="#A9FFEE"/>
<path d="M34.7849 37.4636C35.494 37.4636 36.1637 37.1485 36.6758 36.6758C36.8334 36.5182 37.0304 36.7939 36.9122 36.9909C36.4001 37.7394 35.6516 38.2515 34.7849 38.2515C33.9182 38.2515 33.1698 37.7788 32.6576 36.9909C32.5394 36.7939 32.7364 36.5182 32.894 36.6758C33.4061 37.1879 34.0758 37.4636 34.7849 37.4636Z" fill="#A9FFEE"/>
<path d="M28.9548 37.4636C29.6639 37.4636 30.3336 37.1485 30.8457 36.6758C31.0033 36.5182 31.2003 36.7939 31.0821 36.9909C30.57 37.7394 29.8215 38.2515 28.9548 38.2515C28.0882 38.2515 27.3397 37.7788 26.8276 36.9909C26.7094 36.7939 26.9063 36.5182 27.0639 36.6758C27.6154 37.1879 28.2457 37.4636 28.9548 37.4636Z" fill="#A9FFEE"/>
<path d="M26.1579 41.3242C26.867 41.3242 27.5367 41.0091 28.0489 40.5364C28.2064 40.3788 28.4034 40.6545 28.2852 40.8515C27.7731 41.6 27.0246 42.1121 26.1579 42.1121C25.2913 42.1121 24.5428 41.6394 24.0307 40.8515C23.9125 40.6545 24.1095 40.3788 24.267 40.5364C24.7792 41.0091 25.4489 41.3242 26.1579 41.3242Z" fill="#A9FFEE"/>
<path d="M31.949 41.3242C32.6581 41.3242 33.3278 41.0091 33.8399 40.5364C33.9975 40.3788 34.1944 40.6545 34.0762 40.8515C33.5641 41.6 32.8156 42.1121 31.949 42.1121C31.0823 42.1121 30.3338 41.6394 29.8217 40.8515C29.7035 40.6545 29.9005 40.3788 30.0581 40.5364C30.5702 41.0091 31.2399 41.3242 31.949 41.3242Z" fill="#A9FFEE"/>
<path d="M35.2183 47.8242C35.2183 48.3758 35.5334 49.1636 35.8092 49.7939C36.0455 50.3455 36.5183 50.3455 36.7546 49.7939C37.0304 49.1636 37.3455 48.3758 37.3455 47.8242C37.3455 46.8 36.8728 45.9727 36.2819 45.9727C35.691 45.9727 35.2183 46.8 35.2183 47.8242Z" fill="#F49400"/>
<path d="M32.894 47.8242C32.894 48.3758 33.2092 49.1636 33.485 49.7939C33.7213 50.3455 34.194 50.3455 34.4304 49.7939C34.7062 49.1636 35.0213 48.3758 35.0213 47.8242C35.0213 46.8 34.5486 45.9727 33.9577 45.9727C33.3668 45.9727 32.894 46.8 32.894 47.8242Z" fill="#F49400"/>
<path d="M30.5698 47.8242C30.5698 48.3758 30.885 49.1636 31.1607 49.7939C31.3971 50.3455 31.8698 50.3455 32.1062 49.7939C32.3819 49.1636 32.6971 48.3758 32.6971 47.8242C32.6971 46.8 32.2244 45.9727 31.6335 45.9727C31.0426 45.9727 30.5698 46.8 30.5698 47.8242Z" fill="#F49400"/>
<path d="M25.2515 47.8242C25.2515 48.3758 25.5666 49.1636 25.8424 49.7939C26.0787 50.3455 26.5515 50.3455 26.7878 49.7939C27.0636 49.1636 27.3787 48.3758 27.3787 47.8242C27.3787 46.8 26.906 45.9727 26.3151 45.9727C25.7242 45.9727 25.2515 46.8 25.2515 47.8242Z" fill="#F49400"/>
<path d="M22.9272 47.8242C22.9272 48.3758 23.2424 49.1636 23.5182 49.7939C23.7545 50.3455 24.2272 50.3455 24.4636 49.7939C24.7394 49.1636 25.0545 48.3758 25.0545 47.8242C25.0545 46.8 24.5818 45.9727 23.9909 45.9727C23.4 45.9727 22.9272 46.8 22.9272 47.8242Z" fill="#F49400"/>
<path d="M20.603 47.8242C20.603 48.3758 20.9182 49.1636 21.1939 49.7939C21.4303 50.3455 21.903 50.3455 22.1394 49.7939C22.4151 49.1636 22.7303 48.3758 22.7303 47.8242C22.7303 46.8 22.2576 45.9727 21.6667 45.9727C21.0758 45.9727 20.603 46.8 20.603 47.8242Z" fill="#F49400"/>
<path d="M6.85459 4.01818C6.85459 4.01818 7.99702 4.17576 8.43035 1.9697C8.43035 1.9697 10.1243 4.72727 14.5758 5.43636C18.9485 6.14545 27.3 5.63333 27.3 5.63333H28.4819H29.3879H30.5697C30.5697 5.63333 38.9213 6.14545 43.294 5.43636C47.7455 4.72727 49.4394 1.9697 49.4394 1.9697C49.8728 4.17576 51.0152 4.01818 51.0152 4.01818C52.591 3.54545 56.0182 0.0393941 56.0182 0.0393941C54.3243 5.16061 50.897 9.45455 40.5758 13.5121C35.0607 15.6788 30.8849 18.2 29.3485 19.1848L28.8758 19.5L28.4031 19.1848C26.8667 18.2 22.7304 15.6788 17.1758 13.5121C6.97278 9.41515 3.5455 5.16061 1.85156 0C1.85156 0 5.23944 3.50606 6.85459 4.01818Z" fill="#3FA594"/>
<path d="M23.1638 9.88787C23.8729 9.88787 24.5426 9.57272 25.0547 9.09999C25.2123 8.94242 25.4093 9.21818 25.2911 9.41514C24.779 10.1636 24.0305 10.6757 23.1638 10.6757C22.2971 10.6757 21.5487 10.203 21.0365 9.41514C20.9184 9.21818 21.1153 8.94242 21.2729 9.09999C21.8244 9.61211 22.4547 9.88787 23.1638 9.88787Z" fill="#3C8E7E"/>
<path d="M34.7849 9.88787C35.494 9.88787 36.1637 9.57272 36.6758 9.09999C36.8334 8.94242 37.0304 9.21818 36.9122 9.41514C36.4001 10.1636 35.6516 10.6757 34.7849 10.6757C33.9182 10.6757 33.1698 10.203 32.6576 9.41514C32.5394 9.21818 32.7364 8.94242 32.894 9.09999C33.4061 9.61211 34.0758 9.88787 34.7849 9.88787Z" fill="#3C8E7E"/>
<path d="M28.9548 9.88787C29.6639 9.88787 30.3336 9.57272 30.8457 9.09999C31.0033 8.94242 31.2003 9.21818 31.0821 9.41514C30.57 10.1636 29.8215 10.6757 28.9548 10.6757C28.0882 10.6757 27.3397 10.203 26.8276 9.41514C26.7094 9.21818 26.9063 8.94242 27.0639 9.09999C27.6154 9.61211 28.2457 9.88787 28.9548 9.88787Z" fill="#3C8E7E"/>
<path d="M26.1579 13.7485C26.867 13.7485 27.5367 13.4333 28.0489 12.9606C28.2064 12.803 28.4034 13.0788 28.2852 13.2758C27.7731 14.0242 27.0246 14.5364 26.1579 14.5364C25.2913 14.5364 24.5428 14.0636 24.0307 13.2758C23.9125 13.0788 24.1095 12.803 24.267 12.9606C24.7792 13.4333 25.4489 13.7485 26.1579 13.7485Z" fill="#3C8E7E"/>
<path d="M31.949 13.7485C32.6581 13.7485 33.3278 13.4333 33.8399 12.9606C33.9975 12.803 34.1944 13.0788 34.0762 13.2758C33.5641 14.0242 32.8156 14.5364 31.949 14.5364C31.0823 14.5364 30.3338 14.0636 29.8217 13.2758C29.7035 13.0788 29.9005 12.803 30.0581 12.9606C30.5702 13.4333 31.2399 13.7485 31.949 13.7485Z" fill="#3C8E7E"/>
<path d="M28.9548 17.0576C29.6639 17.0576 30.3336 16.7424 30.8457 16.2697C31.0033 16.1121 31.2003 16.3879 31.0821 16.5849C30.57 17.3333 29.8215 17.8455 28.9548 17.8455C28.0882 17.8455 27.3397 17.3727 26.8276 16.5849C26.7094 16.3879 26.9063 16.1121 27.0639 16.2697C27.6154 16.7424 28.2457 17.0576 28.9548 17.0576Z" fill="#3C8E7E"/>
<path d="M40.6152 28.9546C45.7062 28.9546 49.8333 24.9862 49.8333 20.0909C49.8333 15.1957 45.7062 11.2273 40.6152 11.2273C35.5241 11.2273 31.397 15.1957 31.397 20.0909C31.397 24.9862 35.5241 28.9546 40.6152 28.9546Z" fill="#1F1B1C"/>
<path d="M46.2089 13.7485C46.2089 13.7485 47.9816 13.4333 48.3755 11.9758C48.3755 11.9758 48.6907 13.4333 47.3119 14.4576C45.8543 15.5212 46.2089 13.7485 46.2089 13.7485Z" fill="#1F1B1C"/>
<path d="M47.3119 14.6545C47.3119 14.6545 49.0846 14.3394 49.4786 12.8818C49.4786 12.8818 49.7937 14.3394 48.4149 15.3636C46.9574 16.4273 47.3119 14.6545 47.3119 14.6545Z" fill="#1F1B1C"/>
<path d="M40.3789 28.403C44.9913 28.403 48.7304 24.7874 48.7304 20.3273C48.7304 15.8672 44.9913 12.2515 40.3789 12.2515C35.7664 12.2515 32.0273 15.8672 32.0273 20.3273C32.0273 24.7874 35.7664 28.403 40.3789 28.403Z" fill="white"/>
<path d="M46.4456 21.9424C45.8546 21.4303 45.0668 21.1152 44.2395 21.1152C44.0819 21.1152 43.9243 21.1152 43.7668 21.1546C43.6486 19.9727 42.6243 19.0667 41.3637 19.0667C40.0243 19.0667 38.9607 20.0909 38.9607 21.3909C38.9607 22.5727 39.8668 23.5182 41.0486 23.6758C41.0092 23.8727 40.9698 24.0697 40.9698 24.2667C40.9698 24.9364 41.2062 25.5667 41.5607 26.0788C41.1668 26.1576 40.8122 26.197 40.3789 26.197C36.8334 26.197 33.9971 23.4394 33.9971 20.0515C33.9971 16.6636 36.8728 13.9061 40.3789 13.9061C43.9243 13.9061 46.7607 16.6636 46.7607 20.0515C46.7607 20.7212 46.6425 21.3515 46.4456 21.9424Z" fill="#1F1B1C"/>
<path d="M17.3334 28.9546C22.4245 28.9546 26.5516 24.9862 26.5516 20.0909C26.5516 15.1957 22.4245 11.2273 17.3334 11.2273C12.2424 11.2273 8.11523 15.1957 8.11523 20.0909C8.11523 24.9862 12.2424 28.9546 17.3334 28.9546Z" fill="#1F1B1C"/>
<path d="M11.7397 13.7485C11.7397 13.7485 9.96695 13.4333 9.57301 11.9758C9.57301 11.9758 9.25786 13.4333 10.6366 14.4576C12.0942 15.5212 11.7397 13.7485 11.7397 13.7485Z" fill="#1F1B1C"/>
<path d="M10.6366 14.6545C10.6366 14.6545 8.86392 14.3394 8.46998 12.8818C8.46998 12.8818 8.15483 14.3394 9.53362 15.3636C10.9518 16.4273 10.6366 14.6545 10.6366 14.6545Z" fill="#1F1B1C"/>
<path d="M17.5698 28.403C22.1822 28.403 25.9213 24.7874 25.9213 20.3273C25.9213 15.8672 22.1822 12.2515 17.5698 12.2515C12.9574 12.2515 9.21826 15.8672 9.21826 20.3273C9.21826 24.7874 12.9574 28.403 17.5698 28.403Z" fill="white"/>
<path d="M11.5031 21.9424C12.094 21.4303 12.8819 21.1152 13.7092 21.1152C13.8668 21.1152 14.0244 21.1152 14.1819 21.1546C14.3001 19.9727 15.3244 19.0667 16.585 19.0667C17.9244 19.0667 18.988 20.0909 18.988 21.3909C18.988 22.5727 18.0819 23.5182 16.9001 23.6758C16.9395 23.8727 16.9789 24.0697 16.9789 24.2667C16.9789 24.9364 16.7425 25.5667 16.388 26.0788C16.7819 26.1576 17.1365 26.197 17.5698 26.197C21.1153 26.197 23.9516 23.4394 23.9516 20.0515C23.9516 16.6636 21.0759 13.9061 17.5698 13.9061C14.0244 13.9061 11.188 16.6636 11.188 20.0515C11.188 20.7212 11.3062 21.3515 11.5031 21.9424Z" fill="#1F1B1C"/>
<path d="M32.1454 24.7C32.1848 24.7394 32.1848 24.7788 32.1848 24.8182C32.303 25.0546 32.3424 25.4091 32.2242 25.6455L29.2696 34.5879C29.1121 35.0212 28.7575 35.0212 28.5999 34.5879L25.6848 25.6455C25.606 25.3697 25.606 25.0152 25.7242 24.8182C25.7242 24.7788 25.7636 24.7394 25.7636 24.7C27.5363 21.5091 30.4121 21.5091 32.1454 24.7Z" fill="#F49400"/>
<path d="M10.7548 32.1455C6.42143 30.7667 3.58507 27.4576 2.56083 22.6121C1.81234 19.0273 2.28507 15.8758 2.32446 15.7182L2.48204 14.8121L29.9002 20.7212L29.7426 21.5879C29.6639 21.8636 28.4426 28.1273 23.3214 31.3182C21.3911 32.5394 19.1457 33.1303 16.7032 33.1303C14.8517 33.1697 12.8426 32.8151 10.7548 32.1455ZM3.90022 16.9394C3.66386 19.7364 3.66386 28.0485 11.2669 30.4515C15.7578 31.8697 19.5002 31.6727 22.4548 29.8212C25.882 27.6545 27.379 23.7939 27.8517 22.1L3.90022 16.9394Z" fill="#5D5D5D"/>
<path d="M34.2336 31.3182C29.1124 28.0879 27.8911 21.8636 27.8124 21.5879L27.6548 20.7212L55.073 14.8121L55.2305 15.7182C55.2699 15.8364 55.7427 19.0273 54.9942 22.6121C53.9699 27.497 51.1336 30.7667 46.8002 32.1455C44.673 32.8151 42.7033 33.1697 40.8518 33.1697C38.4093 33.1697 36.1639 32.5394 34.2336 31.3182ZM29.7033 22.1C30.2154 23.7939 31.673 27.6545 35.1002 29.8212C38.0548 31.6727 41.8366 31.9091 46.3275 30.4515C53.9305 28.0485 53.8911 19.7364 53.6942 16.9394L29.7033 22.1Z" fill="#5D5D5D"/>
</svg>
