<svg id="Layer_1" data-name="Layer 1" xmlns="http://www.w3.org/2000/svg" xmlns:xlink="http://www.w3.org/1999/xlink" viewBox="0 0 1080 1080"><defs><style>.cls-1{fill:url(#linear-gradient);}.cls-2{fill:#fff;stroke:#fff;stroke-width:6.52px;}.cls-2,.cls-3{stroke-miterlimit:10;}.cls-3{stroke:#000;stroke-width:14.39px;}.cls-4{fill:url(#linear-gradient-2);}</style><linearGradient id="linear-gradient" x1="126.72" y1="587.02" x2="944.5" y2="587.02" gradientUnits="userSpaceOnUse"><stop offset="0" stop-color="#274998"/><stop offset="0.5" stop-color="#147bc3"/><stop offset="1" stop-color="#069fe2"/></linearGradient><linearGradient id="linear-gradient-2" x1="184.22" y1="412.87" x2="888.15" y2="412.87" gradientUnits="userSpaceOnUse"><stop offset="0" stop-color="#284595"/><stop offset="0.5" stop-color="#147ac2"/><stop offset="1" stop-color="#05a0e3"/></linearGradient></defs><path class="cls-1" d="M944.5,802.06V372a15.72,15.72,0,0,0-24.77-12.86L544.66,623a15.76,15.76,0,0,1-18.1,0L151.49,359.15A15.72,15.72,0,0,0,126.72,372V802.06a15.72,15.72,0,0,0,15.72,15.72H928.78A15.72,15.72,0,0,0,944.5,802.06Z"/><path class="cls-2" d="M457.88,575.77a119,119,0,1,1-195-135.91l65.06,45.27,62.16,43.4Z"/><path class="cls-3" d="M390,532.09a38.72,38.72,0,0,1-74.11-12.92,38.19,38.19,0,0,1,11.95-30.48Z"/><path class="cls-2" d="M622.57,570.26a119,119,0,1,0,195-135.91l-65.07,45.26L690.35,523Z"/><path class="cls-3" d="M690.46,526.58a38.73,38.73,0,0,0,74.12-12.93,38.22,38.22,0,0,0-12-30.47Z"/><path class="cls-4" d="M540.35,532.9l344.4-227.46a7.55,7.55,0,0,0-4.16-13.85H191.79a7.55,7.55,0,0,0-4.16,13.85L532,532.9A7.53,7.53,0,0,0,540.35,532.9Z"/></svg>